<svg width="61" height="39" viewBox="0 0 61 39" fill="none" xmlns="http://www.w3.org/2000/svg">
<path d="M38.7481 21.232H21.2321V27.867C21.2434 30.726 22.3841 33.4647 24.4058 35.4863C26.4274 37.5079 29.1661 38.6487 32.0251 38.66H38.66L38.7481 21.232Z" fill="#BFBA00"/>
<path d="M0 21.232V27.867C0.0113229 30.726 1.15208 33.4647 3.17371 35.4863C5.19534 37.5079 7.934 38.6487 10.793 38.66H17.428V21.232H0Z" fill="#BFBA00"/>
<path d="M17.516 17.516V10.881C17.5047 8.02202 16.3639 5.28335 14.3423 3.26172C12.3207 1.24009 9.582 0.0993356 6.723 0.0880127H0V17.516H17.516Z" fill="#BFBA00"/>
<path d="M21.2321 17.516H38.7481V10.881C38.7367 8.02202 37.596 5.28335 35.5744 3.26172C33.5527 1.24009 30.8141 0.0993356 27.9551 0.0880127H21.3201L21.2321 17.516Z" fill="#BFBA00"/>
<path d="M42.463 21.232V38.748H49.098C51.957 38.7367 54.6957 37.5959 56.7173 35.5743C58.7389 33.5527 59.8797 30.814 59.891 27.955V21.32L42.463 21.232Z" fill="#BFBA00"/>
<path d="M59.98 0H53.345C50.486 0.0113229 47.7473 1.15208 45.7257 3.17371C43.7041 5.19534 42.5633 7.934 42.552 10.793V17.516H60.068L59.98 0Z" fill="#FC943E"/>
</svg>
