<?xml version="1.0" standalone="no"?>
<!DOCTYPE svg PUBLIC "-//W3C//DTD SVG 20010904//EN"
 "http://www.w3.org/TR/2001/REC-SVG-20010904/DTD/svg10.dtd">
<svg version="1.0" xmlns="http://www.w3.org/2000/svg"
 width="1024.000000pt" height="1024.000000pt" viewBox="0 0 1024.000000 1024.000000"
 preserveAspectRatio="xMidYMid meet">
<metadata>
Created by potrace 1.11, written by Peter Selinger 2001-2013
</metadata>
<g transform="translate(0.000000,1024.000000) scale(0.100000,-0.100000)"
fill="#000000" stroke="none">
<path d="M4946 10229 c-101 -15 -227 -50 -326 -92 -52 -22 -97 -43 -100 -47
-3 -4 -13 -10 -23 -13 -20 -8 -158 -101 -192 -129 -265 -226 -423 -525 -461
-873 -3 -27 -5 -65 -4 -84 1 -26 -3 -32 -15 -28 -8 4 -15 3 -15 -1 0 -8 -79
-7 -87 2 -3 3 -14 1 -24 -4 -11 -7 -20 -7 -24 0 -3 6 -15 6 -30 0 -15 -6 -27
-6 -30 0 -3 6 -15 6 -30 0 -15 -6 -27 -6 -30 0 -3 5 -15 6 -29 0 -12 -4 -29
-4 -36 0 -8 5 -22 4 -31 -1 -11 -6 -20 -5 -24 1 -3 6 -15 6 -30 0 -15 -6 -27
-6 -30 0 -3 6 -15 6 -30 0 -15 -6 -27 -6 -30 0 -3 5 -15 6 -29 0 -12 -4 -29
-4 -36 0 -8 5 -22 4 -31 -1 -11 -6 -20 -5 -24 1 -3 6 -15 6 -30 0 -15 -6 -27
-6 -30 0 -3 6 -15 6 -30 0 -15 -6 -25 -6 -25 0 0 5 -12 5 -29 0 -15 -4 -34 -4
-42 0 -7 5 -21 4 -30 -1 -11 -6 -20 -5 -24 1 -3 6 -15 6 -30 0 -15 -6 -27 -6
-30 0 -3 6 -15 6 -30 0 -15 -6 -27 -6 -30 0 -3 5 -15 6 -29 0 -12 -4 -29 -4
-36 0 -8 5 -22 4 -31 -1 -11 -6 -20 -5 -24 1 -3 6 -15 6 -30 0 -15 -6 -27 -6
-30 0 -3 6 -15 6 -30 0 -15 -6 -25 -6 -25 0 0 5 -12 5 -29 0 -15 -4 -34 -4
-42 0 -7 5 -21 4 -30 -1 -11 -6 -20 -5 -24 1 -3 6 -15 6 -30 0 -15 -6 -27 -6
-30 0 -3 6 -15 6 -30 0 -14 -5 -27 -5 -30 0 -3 5 -18 5 -35 0 -17 -5 -32 -5
-35 0 -3 5 -16 5 -30 0 -15 -6 -27 -6 -30 1 -4 5 -11 7 -16 3 -5 -3 -36 -7
-68 -10 -263 -19 -540 -187 -699 -422 -43 -62 -102 -182 -102 -204 0 -8 -4
-18 -9 -24 -5 -5 -17 -40 -27 -79 -18 -67 -19 -215 -21 -3720 -1 -3508 -1
-3653 17 -3735 28 -130 64 -218 136 -330 23 -36 51 -76 63 -90 40 -47 135
-140 142 -140 4 0 14 -6 22 -14 38 -39 192 -122 260 -141 4 -2 8 -3 10 -5 3
-3 25 -8 117 -30 84 -19 131 -19 3056 -20 2638 0 2981 2 3055 15 85 16 112 22
117 25 1 2 7 4 12 5 6 1 12 4 15 5 3 1 8 3 13 5 37 10 156 68 160 78 2 4 8 7
14 7 39 0 236 182 295 272 15 23 31 45 34 48 10 8 76 152 88 195 14 43 22 70
23 70 0 0 6 32 14 70 21 109 20 7267 -1 7375 -25 126 -93 295 -141 351 -8 8
-14 20 -14 25 0 8 -26 38 -99 119 -147 160 -398 279 -612 290 -39 2 -73 6 -76
9 -3 2 -16 1 -29 -4 -13 -5 -24 -6 -24 -2 0 4 -27 7 -60 7 -33 0 -60 -3 -60
-7 0 -4 -11 -3 -25 2 -15 6 -27 6 -30 0 -3 -6 -15 -6 -30 0 -14 5 -25 6 -25 2
0 -4 -22 -7 -50 -7 -27 0 -50 3 -50 7 0 4 -13 3 -30 -2 -17 -5 -30 -6 -30 -2
0 8 -205 6 -226 -2 -8 -3 -14 -2 -14 2 0 8 -204 6 -226 -2 -8 -3 -14 -2 -14 2
0 4 -38 7 -85 7 -47 0 -85 -2 -85 -5 0 -3 -16 -5 -35 -5 -19 0 -35 2 -35 5 0
7 -208 3 -226 -4 -8 -3 -14 -2 -14 2 0 8 -64 7 -77 -1 -5 -3 -15 -2 -23 3 -8
5 -21 5 -31 -1 -11 -5 -20 -5 -23 0 -3 5 -15 7 -25 4 -10 -3 -22 0 -25 6 -4 6
-2 11 4 11 6 0 8 5 5 10 -4 6 -8 39 -10 73 -13 224 -95 440 -255 671 -78 113
-275 282 -400 344 -19 9 -37 19 -40 22 -9 10 -124 58 -155 66 -16 4 -35 10
-40 15 -6 4 -24 10 -40 13 -17 2 -31 5 -32 6 -4 3 -12 5 -63 14 -25 5 -54 10
-65 13 -38 9 -300 10 -359 2z m329 -814 c57 -20 136 -69 181 -113 34 -32 94
-116 98 -135 4 -17 16 -48 29 -75 11 -24 15 -200 5 -242 -20 -82 -80 -183
-146 -245 -46 -44 -136 -92 -203 -108 -251 -61 -491 70 -572 312 -20 58 -24
89 -22 159 2 48 5 96 8 107 23 84 66 161 121 215 14 14 36 35 48 47 34 32 125
75 188 89 72 16 202 10 265 -11z m1638 -3656 c19 -7 158 -139 345 -326 338
-339 355 -360 355 -458 0 -98 -12 -114 -402 -501 -2306 -2289 -2550 -2529
-2591 -2550 -85 -43 -218 -20 -275 48 -14 16 -25 27 -25 25 0 -3 -27 22 -59
56 -33 34 -297 301 -586 592 -289 292 -635 640 -769 775 -134 135 -250 261
-260 281 -23 49 -27 122 -9 182 14 47 38 74 329 361 172 171 319 316 326 321
58 45 163 54 238 20 33 -15 112 -88 293 -270 136 -137 349 -352 474 -477 l225
-228 310 308 c277 276 668 663 1566 1554 161 160 296 288 299 284 3 -3 13 0
20 6 33 27 122 26 196 -3z"/>
</g>
</svg>
