
<svg  fill="#555555" version="1.1" xmlns="http://www.w3.org/2000/svg" xmlns:xlink="http://www.w3.org/1999/xlink" x="0px" y="0px" viewBox="0 0 1000 1000" enable-background="new 0 0 1000 1000" xml:space="preserve">
<g><g transform="translate(0.000000,512.000000) scale(0.100000,-0.100000)"><path d="M4525.6,5007.3c-1153.8-118.8-2186.8-607.5-2997.5-1418.3C750,2810.9,286.1,1866.1,123.2,725.7c-15.3-103.5-24.9-350.7-23-613.3c0-358.4,7.7-490.6,42.2-709.1c86.2-542.4,224.2-979.4,465.7-1464.3c477.2-964,1238.1-1724.9,2204-2204c649.7-323.9,1286-484.9,2020.1-511.7c795.4-30.7,1558.2,130.3,2280.7,479.1c525.1,253,879.7,502.1,1291.8,902.7c446.6,435.1,718.7,808.8,988.9,1360.8c88.2,180.1,191.7,415.9,230,527.1c435.1,1266.8,354.6,2602.7-228.1,3785.2c-260.6,525.1-513.6,881.6-918,1291.8c-764.7,772.4-1692.3,1240-2792.5,1410.6C5443.6,5016.9,4770.9,5034.2,4525.6,5007.3z M5480,3391.7c603.7-178.2,1048.3-622.9,1222.7-1222.8c28.8-99.6,44.1-216.6,49.9-402.5l11.5-260.6l333.5-7.7l335.4-5.8l55.6-63.2l55.6-61.3v-2022c0-1470-5.7-2033.5-21.1-2068c-51.7-113.1,76.7-107.3-2554.8-103.5l-2407.2,5.7l-51.8,53.7l-53.7,51.7l-3.8,2027.7c-3.8,1594.6,0,2035.4,19.2,2073.7c47.9,93.9,128.4,115,456.1,115h299l11.5,245.3c13.4,295.2,59.4,484.9,176.3,722.5c243.4,498.3,713,852.9,1272.6,958.3C4908.9,3470.2,5267.3,3453,5480,3391.7z"/><path d="M4755.6,3046.7c-494.5-97.7-875.9-417.8-1048.4-877.8c-53.7-139.9-61.3-187.8-69-412.1l-7.7-254.9h1374.2h1376.1l-11.5,226.1c-13.4,266.4-42.2,379.5-149.5,598c-65.2,132.2-111.2,195.5-254.9,335.4c-139.9,139.9-205.1,189.7-337.3,253c-90.1,44.1-216.6,93.9-281.7,109.2C5175.3,3067.8,4914.6,3077.3,4755.6,3046.7z"/><path d="M2848.6-663.8V-2427h2156.1h2156.1v1763.2v1763.2H5004.7H2848.6V-663.8z M5154.2,283c151.4-76.7,230-195.5,231.9-352.6c0-124.6-55.6-245.3-141.8-310.5l-57.5-42.2v-553.9v-553.9l-55.6-55.6c-59.4-59.4-159.1-74.7-233.8-36.4c-86.2,47.9-93.9,99.7-93.9,667v532.8l-69,67.1c-38.3,34.5-82.4,92-95.8,126.5c-55.6,128.4-21.1,320,74.7,425.5C4813.1,304.1,5027.7,346.3,5154.2,283z"/></g></g>
</svg>