<svg width="32" height="31" viewBox="0 0 32 31" fill="none" xmlns="http://www.w3.org/2000/svg">
<path fill-rule="evenodd" clip-rule="evenodd" d="M30.7396 9.50278C29.1563 5.80668 26.1931 2.84315 22.4974 1.26004C23.4968 0.473253 24.7547 0 26.1256 0C29.3699 0 32 2.62977 32 5.87403C32 7.24495 31.5266 8.50261 30.7396 9.50278ZM30.5 15.9997C30.5 19.8519 28.9878 23.343 26.5375 25.9399L28.5656 27.9677C28.8339 28.2365 29 28.6072 29 29.0167C29 29.8357 28.3359 30.4997 27.5168 30.4997C27.1073 30.4997 26.7365 30.334 26.4681 30.0652L24.2896 27.8866C21.9391 29.5293 19.0848 30.4997 16 30.4997C12.9212 30.4997 10.0718 29.5335 7.72395 27.8967L5.56067 30.0604C5.28911 30.3316 4.91419 30.4997 4.49993 30.4997C3.67159 30.4997 2.99996 29.8279 2.99996 28.9994C2.99996 28.5858 3.16785 28.2103 3.43927 27.9391L5.45115 25.9274C3.00774 23.3316 1.49998 19.8454 1.49998 15.9997C1.49998 7.99178 7.99187 1.49965 16 1.49965C24.0081 1.49965 30.5 7.99178 30.5 15.9997ZM16 4.49955C9.64862 4.49955 4.49993 9.64821 4.49993 15.9997C4.49993 22.3511 9.64862 27.4998 16 27.4998C22.3512 27.4998 27.4999 22.3511 27.4999 15.9997C27.4999 9.64821 22.3512 4.49955 16 4.49955ZM22 17.4999H16C15.1715 17.4999 14.5 16.8282 14.5 15.9997V7.99953C14.5 7.17163 15.1715 6.49988 16 6.49988C16.8284 6.49988 17.5 7.17163 17.5 7.99953V14.4994H22C22.8284 14.4994 23.5 15.1712 23.5 15.9997C23.5 16.8282 22.8284 17.4999 22 17.4999ZM1.28724 9.70543C0.483378 8.68501 0 7.39992 0 5.9998C0 2.68577 2.68627 0 5.99991 0C7.4001 0 8.68503 0.483384 9.70584 1.28687C5.93089 2.90393 2.90428 5.93066 1.28724 9.70543Z" fill="#95E1D3"/>
</svg>
