<svg width="17" height="15" viewBox="0 0 17 15" fill="none" xmlns="http://www.w3.org/2000/svg">
<path fill-rule="evenodd" clip-rule="evenodd" d="M9.41631 12.3584C8.84272 12.3584 8.28232 12.1927 7.74044 12.1146C5.54877 14.8856 2.09255 14.3403 2.09255 14.3403C4.53369 13.1851 4.48448 11.2712 4.05041 11.0161C2.13409 9.89017 0.981776 8.17594 0.981776 6.25548C0.981776 2.86456 4.70878 0.115608 9.41631 0.115608C14.1239 0.115608 16.9932 2.86456 16.9932 6.25548C16.9932 9.64698 14.1239 12.3584 9.41631 12.3584ZM5.24218 4.87503C4.41375 4.87503 3.74221 5.54617 3.74221 6.37468C3.74221 7.2032 4.41375 7.87494 5.24218 7.87494C6.07062 7.87494 6.74216 7.2032 6.74216 6.37468C6.74216 5.54617 6.07062 4.87503 5.24218 4.87503ZM8.9922 4.87503C8.16376 4.87503 7.49209 5.54617 7.49209 6.37468C7.49209 7.2032 8.16376 7.87494 8.9922 7.87494C9.82063 7.87494 10.4922 7.2032 10.4922 6.37468C10.4922 5.54617 9.82063 4.87503 8.9922 4.87503ZM12.7422 4.87503C11.9137 4.87503 11.2421 5.54617 11.2421 6.37468C11.2421 7.2032 11.9137 7.87494 12.7422 7.87494C13.5705 7.87494 14.2422 7.2032 14.2422 6.37468C14.2422 5.54617 13.5705 4.87503 12.7422 4.87503Z" fill="#95E1D3"/>
</svg>
