<svg width="32" height="28" viewBox="0 0 32 28" fill="none" xmlns="http://www.w3.org/2000/svg">
<path fill-rule="evenodd" clip-rule="evenodd" d="M30 22.9997H22.5001H20.5V25.4995L22.5001 27.4998V28H9.50002V27.4998L11.5 25.4995V22.9997H9.50002H2.00002C1.17158 22.9997 0.500046 22.328 0.500046 21.4995V1.49972C0.500046 0.67121 1.17158 4.99487e-05 2.00002 4.99487e-05H30C30.8285 4.99487e-05 31.5 0.67121 31.5 1.49972V21.4995C31.5 22.328 30.8285 22.9997 30 22.9997ZM29.5 1.99979H2.49999V18.9996H29.5V1.99979ZM12.9999 8.99978C13.4142 8.99978 13.7892 9.16784 14.0606 9.43904L14.9999 10.3784L17.9393 7.43933C18.2108 7.16753 18.5857 7.00004 19 7.00004C19.8284 7.00004 20.5 7.67117 20.5 8.49968C20.5 8.91395 20.3321 9.28886 20.0606 9.56066L16.0607 13.5607C15.7892 13.8319 15.4142 14 14.9999 14C14.5858 14 14.2107 13.8319 13.9393 13.5607L11.9393 11.5604C11.6679 11.2892 11.5 10.9137 11.5 10.5C11.5 9.67151 12.1716 8.99978 12.9999 8.99978Z" fill="#95E1D3"/>
</svg>
