<svg width="32" height="31" viewBox="0 0 32 31" fill="none" xmlns="http://www.w3.org/2000/svg">
<path fill-rule="evenodd" clip-rule="evenodd" d="M31.9999 16.4998C31.9999 17.3284 31.3284 17.9995 30.5 17.9995C30.1048 17.9995 29.7481 17.8439 29.4802 17.5942L29.4765 17.5978L16.0382 4.15932L16.0383 4.15869L15.9999 4.12236V4.12177L2.55381 17.5686L2.55315 17.568C2.28225 17.835 1.91045 17.9995 1.50007 17.9995C0.671515 17.9995 -3.00407e-05 17.3284 -3.00407e-05 16.4998C-3.00407e-05 16.0749 0.177 15.6916 0.460815 15.4186L14.9188 0.960332C15.1918 0.676598 15.575 0.499586 15.9999 0.499586C16.0002 0.499586 16.0003 0.499586 16.0005 0.499586C16.0271 0.499586 16.0534 0.50018 16.0796 0.501962C16.0837 0.501962 16.088 0.502556 16.0921 0.502556C16.1147 0.504338 16.1372 0.50612 16.1596 0.508529C16.161 0.508529 16.1624 0.508529 16.1639 0.509123C16.5311 0.549053 16.8581 0.721313 17.097 0.976997L17.0978 0.976403L22.9999 6.87845V5.49981C22.9999 4.67131 23.6715 3.99957 24.4999 3.99957C25.3284 3.99957 25.9999 4.67131 25.9999 5.49981V9.87838L31.5978 15.4764L31.5944 15.48C31.8441 15.7476 31.9999 16.1047 31.9999 16.4998ZM29 18.9997V23.4998V25.4996V29.4996C29 30.3281 28.3284 30.9999 27.5 30.9999H24.4999V18.9997H18.5V30.9999H4.50002C3.67157 30.9999 3.00003 30.3281 3.00003 29.4996V25.4996V23.4998V18.9997L15.9999 5.99989L29 18.9997ZM13.5 18.9997H7.49994V25.0001H13.5V18.9997Z" fill="#95E1D3"/>
</svg>
