<svg width="32" height="32" viewBox="0 0 32 32" fill="none" xmlns="http://www.w3.org/2000/svg">
<path fill-rule="evenodd" clip-rule="evenodd" d="M30.4999 31.9998H1.49991C0.6716 31.9998 5.49555e-05 31.3281 5.49555e-05 30.4996V1.49955C5.49555e-05 0.671655 0.6716 -0.000100017 1.49991 -0.000100017H30.4999C31.3284 -0.000100017 32 0.671655 32 1.49955V30.4996C32 31.3281 31.3284 31.9998 30.4999 31.9998ZM29 2.99978H3.00001V29H29V2.99978ZM5.21537 16.2386L5.21467 16.2374L9.21461 13.7376L9.21542 13.7388C9.44372 13.5981 9.71231 13.517 9.9999 13.517C10.3113 13.517 10.6004 13.6118 10.8401 13.7745L10.846 13.7656L17.4767 18.1859L25.1149 12.7946C25.363 12.6128 25.6689 12.5055 26 12.5055C26.8283 12.5055 27.5 13.1767 27.5 14.0052C27.5 14.5053 27.255 14.9482 26.8784 15.2205L26.8789 15.2211L18.3789 21.2215L18.3785 21.2209C18.1315 21.3997 17.8281 21.5053 17.5 21.5053C17.1793 21.5053 16.8824 21.4045 16.6386 21.2329L9.9824 16.7953L6.84683 18.7551C6.60581 18.9202 6.31423 19.0174 5.99997 19.0174C5.17151 19.0174 4.5 18.3456 4.5 17.5171C4.5 16.9765 4.78634 16.5026 5.21537 16.2386Z" fill="#95E1D3"/>
</svg>
