<svg width="32" height="32" viewBox="0 0 32 32" fill="none" xmlns="http://www.w3.org/2000/svg">
<path fill-rule="evenodd" clip-rule="evenodd" d="M30.5 32H1.50003C0.671452 32 -9.20296e-05 31.3283 -9.20296e-05 30.4998V1.49974C-9.20296e-05 0.67125 0.671452 9.0003e-05 1.50003 9.0003e-05H30.5C31.3285 9.0003e-05 32 0.67125 32 1.49974V30.4998C32 31.3283 31.3285 32 30.5 32ZM29.0001 3.00001H3V28.9995H29.0001V3.00001ZM6.50007 4.49965H11.9999H12C12.8284 4.49965 13.4999 5.17138 13.4999 5.9999C13.4999 6.82841 12.8284 7.49954 12 7.49954H7.50004V11.9997C7.50004 12.8282 6.82839 13.4999 5.99996 13.4999C5.17163 13.4999 4.49998 12.8282 4.49998 11.9997V6.49998V4.49965H6.50007ZM4.49998 19.9998C4.49998 19.1713 5.17163 18.4996 5.99996 18.4996C6.82839 18.4996 7.50004 19.1713 7.50004 19.9998V24.4994H12V24.5C12.8284 24.5 13.4999 25.1711 13.4999 25.9996C13.4999 26.8281 12.8284 27.4999 12 27.4999H11.9999H6.50007H4.49998V25.4995V19.9998ZM20 4.49965H20.0001H25.5H27.4999V6.49998V11.9997C27.4999 12.8282 26.8283 13.4999 26 13.4999C25.1715 13.4999 24.4999 12.8282 24.4999 11.9997V7.49954H20C19.1715 7.49954 18.5 6.82841 18.5 5.9999C18.5 5.17138 19.1715 4.49965 20 4.49965ZM20 24.5V24.4994H24.4999V19.9998C24.4999 19.1713 25.1715 18.4996 26 18.4996C26.8283 18.4996 27.4999 19.1713 27.4999 19.9998V25.4995V27.4999H25.5H20.0001H20C19.1715 27.4999 18.5 26.8281 18.5 25.9996C18.5 25.1711 19.1715 24.5 20 24.5Z" fill="#95E1D3"/>
</svg>
