<svg width="30" height="30" viewBox="0 0 30 30" fill="none" xmlns="http://www.w3.org/2000/svg">
<path fill-rule="evenodd" clip-rule="evenodd" d="M30 23.9995C30 24.6516 29.5812 25.2011 28.9999 25.408V27.0912C29.5812 27.298 30 27.8475 30 28.4996C30 29.3281 29.3284 29.9993 28.5 29.9993C27.8478 29.9993 27.2985 29.5809 27.0918 28.9997H25.4082C25.2015 29.5809 24.6522 29.9993 24 29.9993C23.3478 29.9993 22.7985 29.5809 22.5919 28.9997H20.9081C20.7014 29.5809 20.1521 29.9993 19.4999 29.9993C18.8478 29.9993 18.2984 29.5809 18.0918 28.9997H16.4082C16.2015 29.5809 15.6521 29.9993 15 29.9993C14.3478 29.9993 13.7984 29.5809 13.5918 28.9997H11.9082C11.7015 29.5809 11.1522 29.9993 10.5 29.9993C9.84787 29.9993 9.29843 29.5809 9.09187 28.9997H7.4081C7.20154 29.5809 6.6521 29.9993 5.9999 29.9993C5.34784 29.9993 4.7984 29.5809 4.59184 28.9997H2.90806C2.7015 29.5809 2.15216 29.9993 1.49997 29.9993C0.671552 29.9993 0 29.3281 0 28.4996C0 27.8475 0.418752 27.298 1 27.0912V25.408C0.418752 25.2011 0 24.6516 0 23.9995C0 23.3474 0.418752 22.7978 1 22.5916V20.9078C0.418752 20.701 0 20.1514 0 19.4999C0 18.8478 0.418752 18.2983 1 18.0915V16.4082C0.418752 16.2014 0 15.6519 0 14.9998C0 14.3471 0.418752 13.7982 1 13.5913V11.9075C0.418752 11.7013 0 11.1517 0 10.4996C0 9.84756 0.418752 9.29801 1 9.09176V7.40794C0.418752 7.20109 0 6.65154 0 5.99946C0 5.34738 0.418752 4.79783 1 4.59162V2.90779C0.418752 2.70095 0 2.1514 0 1.49991C0 0.671416 0.671552 -0.000331998 1.49997 -0.000331998C2.15216 -0.000331998 2.7015 0.418108 2.90806 0.999238H4.59184C4.7984 0.418108 5.34784 -0.000331998 5.9999 -0.000331998C6.6521 -0.000331998 7.20154 0.418108 7.4081 0.999238H9.09187C9.29843 0.418108 9.84787 -0.000331998 10.5 -0.000331998C11.1522 -0.000331998 11.7015 0.418108 11.9082 0.999238H13.5918C13.7984 0.418108 14.3478 -0.000331998 15 -0.000331998C15.6521 -0.000331998 16.2015 0.418108 16.4082 0.999238H18.0918C18.2984 0.418108 18.8478 -0.000331998 19.4999 -0.000331998C20.1521 -0.000331998 20.7014 0.418108 20.9081 0.999238H22.5919C22.7985 0.418108 23.3478 -0.000331998 24 -0.000331998C24.6522 -0.000331998 25.2015 0.418108 25.4082 0.999238H27.0918C27.2985 0.418108 27.8478 -0.000331998 28.5 -0.000331998C29.3284 -0.000331998 30 0.671416 30 1.49991C30 2.1514 29.5812 2.70095 28.9999 2.90779V4.59162C29.5812 4.79783 30 5.34738 30 5.99946C30 6.65154 29.5812 7.20109 28.9999 7.40794V9.09176C29.5812 9.29801 30 9.84756 30 10.4996C30 11.1517 29.5812 11.7013 28.9999 11.9075V13.5913C29.5812 13.7982 30 14.3471 30 14.9998C30 15.6519 29.5812 16.2014 28.9999 16.4082V18.0915C29.5812 18.2983 30 18.8478 30 19.4999C30 20.1514 29.5812 20.701 28.9999 20.9078V22.5916C29.5812 22.7978 30 23.3474 30 23.9995ZM26.0001 3.99914H3.99994V25.9998H26.0001V3.99914ZM13 20L19.9999 11.4998L24.5 18.4992V24.4996H5.4999L11.4999 18.4992L13 20ZM9.99997 12.9995C8.34307 12.9995 7 11.6566 7 9.99953C7 8.34253 8.34307 6.99963 9.99997 6.99963C11.6568 6.99963 13 8.34253 13 9.99953C13 11.6566 11.6568 12.9995 9.99997 12.9995Z" fill="white"/>
</svg>
