<svg width="12" height="22" viewBox="0 0 12 22" fill="none" xmlns="http://www.w3.org/2000/svg">
<path fill-rule="evenodd" clip-rule="evenodd" d="M11.4772 18.8598L3.61884 11.0015L11.5808 3.03954H11.5796C11.8395 2.76894 12.0004 2.40296 12.0004 1.99765C12.0004 1.16914 11.3293 0.497984 10.5008 0.497984C10.0955 0.497984 9.72953 0.657728 9.45889 0.9188V0.9176L0.458555 9.91791L0.459815 9.91911C0.17726 10.1909 0.000800014 10.5736 0.000800014 10.9979C0.000800014 10.9991 0.000800014 11.0003 0.000800014 11.0015C0.000800014 11.0027 0.000800014 11.0039 0.000800014 11.0051C0.000800014 11.4283 0.17726 11.811 0.459815 12.0839H0.458555L9.45889 21.0842L9.46243 21.0807C9.73193 21.3393 10.0978 21.4979 10.5008 21.4979C11.3293 21.4979 12.0004 20.8268 12.0004 19.9982C12.0004 19.5429 11.7978 19.1352 11.4772 18.8598Z" fill="#CCCCCC"/>
</svg>
