<svg width="20" height="26" viewBox="0 0 20 26" fill="none" xmlns="http://www.w3.org/2000/svg">
<path fill-rule="evenodd" clip-rule="evenodd" d="M10 25.8C10 25.8 0.400014 15.101 0.400014 9.79977C0.400014 4.49853 4.69842 0.199856 10 0.199856C15.3016 0.199856 19.6 4.49853 19.6 9.79977C19.6 15.101 10 25.8 10 25.8ZM10 3.40003C6.46561 3.40003 3.6 6.26522 3.6 9.79977C3.6 13.3343 6.46561 16.2001 10 16.2001C13.5344 16.2001 16.4 13.3343 16.4 9.79977C16.4 6.26522 13.5344 3.40003 10 3.40003ZM10 12.9999C8.2327 12.9999 6.80001 11.567 6.80001 9.79977C6.80001 8.03249 8.2327 6.59959 10 6.59959C11.7673 6.59959 13.2 8.03249 13.2 9.79977C13.2 11.567 11.7673 12.9999 10 12.9999Z" fill="#F38181"/>
</svg>
