<svg width="21" height="26" viewBox="0 0 21 26" fill="none" xmlns="http://www.w3.org/2000/svg">
<path fill-rule="evenodd" clip-rule="evenodd" d="M9.05075 16.8537C8.84156 17.687 8.63123 18.5602 8.41286 19.4143C8.19761 20.256 8.00843 21.1101 7.69531 21.8838C7.17622 23.1653 6.51681 24.4032 5.65174 25.4052C5.07715 26.0722 5.19937 25.8057 5.02621 25.77C4.89426 25.7426 4.8826 25.6132 4.85672 25.4255C4.71596 24.4068 4.81187 23.2302 4.8644 22.0858C4.9239 20.7823 5.19799 19.6981 5.45251 18.615C5.93705 16.5515 6.39894 14.528 6.88771 12.4513C6.92044 12.3131 7.00786 12.0848 6.97766 12.0061C6.75611 11.4291 6.61224 10.9111 6.54908 10.3056C6.47617 9.60997 6.53213 8.96147 6.68846 8.36245C6.96451 7.30447 7.60124 6.3669 8.58235 6.02415C9.20607 5.80781 9.89728 5.90554 10.3168 6.15648C10.7492 6.41458 11.0456 6.82287 11.184 7.40162C11.3316 8.01735 11.2228 8.75284 11.1042 9.29346C10.8371 10.5118 10.4863 11.4267 10.1672 12.6027C10.0091 13.1862 9.83022 13.7853 9.97785 14.4147C10.1137 14.9929 10.4147 15.391 10.8253 15.6896C11.2507 15.9996 11.7545 16.1695 12.4499 16.145C13.6776 16.1021 14.531 15.3171 15.1015 14.5768C16.0136 13.3925 16.5663 11.7933 16.776 9.89072C16.8435 9.27737 16.8931 8.57226 16.8457 7.87667C16.7585 6.59278 16.3567 5.56044 15.7193 4.75995C15.1129 3.9976 14.253 3.39083 13.2075 3.0493C12.1704 2.71072 10.7348 2.59809 9.45955 2.81623C7.14246 3.21321 5.5079 4.53047 4.54532 6.34901C4.041 7.3009 3.70808 8.39643 3.70808 9.759C3.70808 10.8098 3.9674 11.624 4.38602 12.2588C4.51867 12.4603 4.71414 12.626 4.84448 12.8561C5.02908 13.1821 4.81599 13.6673 4.72465 14.0201C4.61492 14.4451 4.60324 15.0322 4.1068 15.0423C3.90148 15.0459 3.64319 14.8957 3.46878 14.7991C2.16427 14.0779 1.37155 12.766 1.04665 11.0649C0.849246 10.0314 0.849568 8.82558 1.04665 7.82661C1.23707 6.86042 1.5915 5.96873 1.9837 5.24573C2.79794 3.74309 3.99063 2.54145 5.44255 1.68314C6.5587 1.02272 7.81799 0.5602 9.34979 0.337277C9.85825 0.262776 10.3842 0.232384 10.9548 0.205559C12.6227 0.126882 14.1394 0.504781 15.2809 1.01498C16.4861 1.5538 17.4475 2.27146 18.2611 3.16075C19.0986 4.0757 19.7086 5.14023 20.0955 6.46999C20.2966 7.16202 20.4929 7.9023 20.4929 8.75702C20.4929 9.61475 20.3116 10.3699 20.1851 11.1251C19.711 13.9534 18.366 16.266 16.3474 17.5827C15.8578 17.9016 15.2656 18.196 14.593 18.3921C13.9259 18.5864 13.1651 18.7319 12.3502 18.6753C11.5586 18.621 10.9114 18.4058 10.3667 18.0983C9.82656 17.7931 9.37256 17.4194 9.05075 16.8537Z" fill="#fff"/>
</svg>
