<svg width="12" height="22" viewBox="0 0 12 22" fill="none" xmlns="http://www.w3.org/2000/svg">
<path fill-rule="evenodd" clip-rule="evenodd" d="M0.52276 18.8598L8.38108 11.0015L0.41908 3.03954H0.42022C0.160435 2.76894 -0.000574946 2.40296 -0.000574946 1.99765C-0.000574946 1.16914 0.670615 0.497984 1.49905 0.497984C1.90441 0.497984 2.27038 0.657728 2.54104 0.9188V0.9176L11.5413 9.91791L11.5401 9.91911C11.8226 10.1909 11.999 10.5736 11.999 10.9979C11.999 10.9991 11.999 11.0003 11.999 11.0015C11.999 11.0027 11.999 11.0039 11.999 11.0051C11.999 11.4283 11.8226 11.811 11.5401 12.0839H11.5413L2.54104 21.0842L2.53738 21.0807C2.26798 21.3393 1.90199 21.4979 1.49905 21.4979C0.670615 21.4979 -0.000574946 20.8268 -0.000574946 19.9982C-0.000574946 19.5429 0.20209 19.1352 0.52276 18.8598Z" fill="#CCCCCC"/>
</svg>
