<svg width="18" height="18" viewBox="0 0 18 18" fill="none" xmlns="http://www.w3.org/2000/svg">
<path fill-rule="evenodd" clip-rule="evenodd" d="M17.3168 14.9828C17.6153 15.2815 17.7999 15.6939 17.7999 16.1499C17.7999 17.0612 17.0612 17.7997 16.15 17.7997C15.6943 17.7997 15.2818 17.615 14.9832 17.3164V17.3164L10.1475 12.4806C9.16514 13.0612 8.02346 13.3997 6.79998 13.3997C3.15492 13.3997 0.19994 10.4451 0.19994 6.79972C0.19994 3.15488 3.15492 0.19968 6.79998 0.19968C10.445 0.19968 13.3999 3.15488 13.3999 6.79972C13.3999 8.0234 13.0612 9.16482 12.4809 10.1471L17.3168 14.9828V14.9828ZM6.79998 1.84954C4.0661 1.84954 1.84996 4.06564 1.84996 6.79972C1.84996 9.53378 4.0661 11.7499 6.79998 11.7499C9.53374 11.7499 11.7499 9.53378 11.7499 6.79972C11.7499 4.06564 9.53374 1.84954 6.79998 1.84954Z" fill="white"/>
</svg>
