<svg width="32" height="32" viewBox="0 0 32 32" fill="none" xmlns="http://www.w3.org/2000/svg">
<path fill-rule="evenodd" clip-rule="evenodd" d="M31.0645 25.8894L16.5937 31.8773C16.4116 31.9559 16.2109 32 16 32C15.7891 32 15.5883 31.9559 15.4062 31.8773L0.93531 25.8894C0.38679 25.6665 -3.00407e-05 25.1282 -3.00407e-05 24.5V1.49974C-3.00407e-05 0.67125 0.671515 9.0003e-05 1.49996 9.0003e-05C1.70321 9.0003e-05 1.89673 0.04062 2.07344 0.113945H2.07354L2.07596 0.115135C2.08041 0.116325 2.08489 0.118705 2.08933 0.12049L16 5.87652L29.9106 0.12049C29.915 0.118705 29.9195 0.116325 29.924 0.115135L29.9265 0.113945C30.1032 0.04062 30.2967 9.0003e-05 30.5 9.0003e-05C31.3284 9.0003e-05 31.9999 0.67125 31.9999 1.49974V24.5C31.9999 25.1282 31.6132 25.6665 31.0645 25.8894ZM14.5 8.50271L2.99993 3.74387V23.4968L14.5 28.2557V8.50271ZM29 3.74387L17.4999 8.50271V28.2557L29 23.4968V3.74387ZM19.8793 10.6341L25.3793 8.13433C25.5685 8.04792 25.7785 7.99962 25.9999 7.99962C26.8284 7.99962 27.5 8.67138 27.5 9.4999C27.5 10.1067 27.1393 10.6294 26.6207 10.8654L21.1206 13.3652C20.9315 13.4517 20.7215 13.4999 20.5 13.4999C19.6716 13.4999 18.9999 12.8282 18.9999 11.9997C18.9999 11.3929 19.3606 10.8702 19.8793 10.6341ZM19.8793 16.1345L25.3793 13.6341C25.5685 13.5482 25.7785 13.4999 25.9999 13.4999C26.8284 13.4999 27.5 14.1711 27.5 14.9996C27.5 15.607 27.1393 16.1291 26.6207 16.3651L21.1206 18.8655V18.865C20.9315 18.9514 20.7215 18.9997 20.5 18.9997C19.6716 18.9997 18.9999 18.3279 18.9999 17.5C18.9999 16.8926 19.3606 16.3705 19.8793 16.1345ZM19.8793 21.6342L25.3793 19.1344C25.5685 19.048 25.7785 18.9997 25.9999 18.9997C26.8284 18.9997 27.5 19.6714 27.5 20.4999C27.5 21.1067 27.1393 21.6294 26.6207 21.8655L21.1206 24.3653C20.9315 24.4517 20.7215 24.5 20.5 24.5C19.6716 24.5 18.9999 23.8282 18.9999 22.9997C18.9999 22.393 19.3606 21.8702 19.8793 21.6342ZM6.00002 7.99962C6.22147 7.99962 6.43147 8.04792 6.62061 8.13433L12.1206 10.6341C12.6393 10.8702 13 11.3929 13 11.9997C13 12.8282 12.3284 13.4999 11.4999 13.4999C11.2785 13.4999 11.0685 13.4517 10.8793 13.3652L5.37929 10.8654C4.86063 10.6294 4.49992 10.1067 4.49992 9.4999C4.49992 8.67138 5.17157 7.99962 6.00002 7.99962ZM6.00002 13.4999C6.22147 13.4999 6.43147 13.5482 6.62061 13.6341L12.1206 16.1345C12.6393 16.3705 13 16.8926 13 17.5C13 18.3279 12.3284 18.9997 11.4999 18.9997C11.2785 18.9997 11.0685 18.9514 10.8793 18.865V18.8655L5.37929 16.3651C4.86063 16.1291 4.49992 15.607 4.49992 14.9996C4.49992 14.1711 5.17157 13.4999 6.00002 13.4999ZM6.00002 18.9997C6.22147 18.9997 6.43147 19.048 6.62061 19.1344L12.1206 21.6342C12.6393 21.8702 13 22.393 13 22.9997C13 23.8282 12.3284 24.5 11.4999 24.5C11.2785 24.5 11.0685 24.4517 10.8793 24.3653L5.37929 21.8655C4.86063 21.6294 4.49992 21.1067 4.49992 20.4999C4.49992 19.6714 5.17157 18.9997 6.00002 18.9997Z" fill="#95E1D3"/>
</svg>
