<svg width="18" height="15" viewBox="0 0 18 15" fill="none" xmlns="http://www.w3.org/2000/svg">
<path fill-rule="evenodd" clip-rule="evenodd" d="M17.726 3.66288L17.7273 3.66347L15.2524 9.16319H15.2522C15.1301 9.4344 14.8661 9.62752 14.5548 9.64778V9.64778L7.42724 10.1228L7.83898 11.2994H15.6C16.5112 11.2994 17.2499 12.0385 17.2499 12.9499C17.2499 13.8612 16.5112 14.5997 15.6 14.5997C14.6887 14.5997 13.9499 13.8612 13.9499 12.9499H6.24998C6.24998 13.8612 5.51126 14.5997 4.59996 14.5997C3.68868 14.5997 2.94996 13.8612 2.94996 12.9499C2.94996 12.0385 3.68868 11.2994 4.59996 11.2994H6.0909L2.91472 2.22463H1.02494C0.56936 2.22463 0.19994 1.85508 0.19994 1.3997C0.19994 0.944324 0.56936 0.574761 1.02494 0.574761H3.49996C3.85988 0.574761 4.16292 0.806624 4.27552 1.1285L4.27862 1.1273L4.75904 2.49999H16.9749C17.4306 2.49999 17.7999 2.86895 17.7999 3.32492C17.7999 3.44533 17.7726 3.55918 17.726 3.66288ZM5.3365 4.14986L6.86166 8.50696L13.9509 8.03429L15.699 4.14986H5.3365Z" fill="white"/>
</svg>
