<svg width="32" height="24" viewBox="0 0 32 24" fill="none" xmlns="http://www.w3.org/2000/svg">
<path fill-rule="evenodd" clip-rule="evenodd" d="M31.9498 22.5031C31.9498 22.5043 31.95 22.5054 31.95 22.5054C31.95 23.0538 31.5045 23.4973 30.955 23.4973H23.5431C24.0985 23.3745 24.5146 22.8833 24.5146 22.292C24.5146 22.2909 24.5143 22.2909 24.5143 22.2897H24.5152C24.5152 22.2897 24.5152 17.7859 21.2136 16.148C19.8023 15.4482 19.709 15.5818 19.0083 15.4161L19.0275 13.4658C19.0275 13.4658 18.2568 12.8781 18.0174 11.0351C17.5349 11.1746 17.3758 10.4713 17.3473 10.023C17.3214 9.59149 17.0682 8.23967 17.6565 8.36244C17.5361 7.46004 17.4497 6.64704 17.4921 6.21549C17.6397 4.70274 19.1016 3.12201 21.3533 3.00756C24.002 3.12201 25.0513 4.70154 25.1983 6.2143C25.2412 6.64585 25.1468 7.46004 25.0263 8.36008C25.615 8.23967 25.3591 9.58793 25.3305 10.0206C25.3045 10.4689 25.1416 11.1698 24.6607 11.0304C24.4201 12.8733 23.6493 13.4563 23.6493 13.4563L23.6674 15.4042C23.6674 15.4042 24.1547 15.6819 26.2126 16.5307C28.2707 17.3818 27.625 16.7453 29.3015 17.5761C31.9503 18.8898 31.9503 22.5031 31.9503 22.5031H31.9498ZM17.023 15.8405C19.2851 16.7751 18.5755 16.0753 20.4182 16.9896C23.3298 18.4333 23.3298 22.4053 23.3298 22.4053H23.329C23.329 22.4053 23.3294 22.4065 23.3294 22.4077C23.3294 23.0097 22.8397 23.4973 22.2358 23.4973H1.09351C0.48948 23.4973 -0.000100017 23.0097 -0.000100017 22.4077C-0.000100017 22.4065 0.000144958 22.4053 0.000144958 22.4053H-0.000555038C-0.000555038 22.4053 -0.0005548 18.4333 2.91127 16.9884C4.75367 16.0753 4.04436 16.8168 6.30627 15.8822C8.56821 14.9488 9.10413 14.6221 9.10413 14.6221L9.12541 12.4704C9.12541 12.4704 8.2782 11.8243 8.01501 9.80011C7.48479 9.95271 7.30982 9.17903 7.27857 8.68669C7.25019 8.21224 6.97186 6.72691 7.61845 6.86162C7.48615 5.8698 7.39106 4.97571 7.43775 4.50306C7.59991 2.8395 9.20669 1.10259 11.6818 0.975064C14.5932 1.10142 15.7465 2.8383 15.9081 4.50007C15.9552 4.97451 15.8516 5.8686 15.7192 6.85923C16.3662 6.72691 16.0849 8.20868 16.0533 8.68432C16.0248 9.17666 15.8457 9.94675 15.3171 9.79416C15.0528 11.8195 14.2056 12.4597 14.2056 12.4597L14.2255 14.6019C14.2255 14.6019 14.7611 14.9058 17.023 15.8405Z" fill="white"/>
</svg>
