<svg width="26" height="22" viewBox="0 0 26 22" fill="none" xmlns="http://www.w3.org/2000/svg">
<path fill-rule="evenodd" clip-rule="evenodd" d="M17.5126 0.601064C19.547 0.564704 20.6297 1.30618 21.664 2.24854C22.5418 2.17342 23.6827 1.68289 24.3547 1.34134C24.5725 1.22274 24.7904 1.10293 25.008 0.98432C24.6243 2.02143 24.1038 2.83326 23.304 3.44958C23.1264 3.58606 22.95 3.77144 22.7275 3.85846C22.7275 3.86204 22.7275 3.86679 22.7275 3.87097C23.8672 3.85964 24.8072 3.34527 25.7 3.06632C25.7 3.0705 25.7 3.07465 25.7 3.07942C25.2311 3.82448 24.5963 4.58086 23.919 5.12326C23.6457 5.34022 23.3723 5.55718 23.099 5.77414C23.1139 6.98115 23.0812 8.1327 22.8555 9.14718C21.5439 15.0421 18.0684 19.0445 12.5668 20.7588C10.5913 21.3745 7.39877 21.6272 5.13536 21.0651C4.01292 20.7868 2.9991 20.4721 2.04752 20.0566C1.51902 19.8254 1.02944 19.575 0.56128 19.2895C0.407476 19.1959 0.253756 19.1024 0.099952 19.0088C0.610476 19.0243 1.20774 19.1649 1.77847 19.0725C2.29482 18.9891 2.80122 19.0112 3.27753 18.9068C4.46566 18.6458 5.52056 18.3013 6.42946 17.7696C6.87004 17.5115 7.53863 17.2093 7.85172 16.8374C7.26168 16.8475 6.72688 16.7104 6.28857 16.556C4.58958 15.9564 3.60071 14.8531 2.95721 13.1961C3.47208 13.2527 4.95512 13.3868 5.30199 13.0942C4.65379 13.0584 4.03054 12.6829 3.58514 12.4046C2.21838 11.5492 1.10384 10.1152 1.11218 7.90801C1.29152 7.99323 1.47097 8.07846 1.65028 8.1631C1.99362 8.30794 2.34267 8.38544 2.75225 8.47006C2.92526 8.50582 3.27112 8.60715 3.46978 8.53326C3.46121 8.53326 3.45262 8.53326 3.44416 8.53326C3.17967 8.2263 2.74892 8.02064 2.4832 7.69045C1.60635 6.60087 0.784552 4.92358 1.30446 2.92566C1.43628 2.41902 1.64538 1.97197 1.86818 1.5589C1.87666 1.56308 1.88523 1.56726 1.89383 1.57143C1.99578 1.78542 2.22353 1.94216 2.36784 2.12098C2.81564 2.67591 3.36806 3.1754 3.931 3.61527C5.84891 5.11551 7.57615 6.03702 10.3502 6.71948C11.0539 6.89293 11.8672 7.02526 12.7078 7.02644C12.4717 6.3386 12.5476 5.22639 12.7334 4.56061C13.2009 2.8875 14.2162 1.68169 15.706 1.03558C16.0622 0.880616 16.4572 0.76796 16.872 0.67736C17.0855 0.651728 17.2991 0.626096 17.5126 0.601064Z" fill="#F38181"/>
</svg>
