<svg width="20" height="12" viewBox="0 0 20 12" fill="none" xmlns="http://www.w3.org/2000/svg">
<path fill-rule="evenodd" clip-rule="evenodd" d="M19.7098 5.77582C19.7093 5.78416 19.7087 5.79251 19.7081 5.80026C19.7078 5.80443 19.7073 5.80861 19.7069 5.81278C19.7066 5.81874 19.7055 5.82471 19.7047 5.83007C19.7039 5.83722 19.7032 5.84377 19.702 5.85093C19.7018 5.85212 19.7017 5.85272 19.7017 5.85331C19.6778 6.00769 19.6069 6.15133 19.4986 6.26279C19.2946 6.51015 19.0718 6.74201 18.8477 6.96971C17.6365 8.19995 16.2465 9.29666 14.7247 10.0924C13.7519 10.6008 12.7131 11.0109 11.6353 11.2082C10.4503 11.4252 9.26399 11.4144 8.08514 11.1581C6.04546 10.7141 4.1977 9.61257 2.5818 8.29531C1.83151 7.68377 1.09383 7.015 0.47367 6.26279C0.202322 5.93378 0.202322 5.54396 0.47367 5.21495C0.6775 4.96758 0.900426 4.73513 1.12461 4.50743C2.33562 3.2778 3.72562 2.18107 5.24758 1.38535C6.21998 0.876924 7.25887 0.466248 8.3368 0.268946C9.52183 0.05259 10.708 0.063314 11.887 0.319612C13.9265 0.763076 15.7743 1.86516 17.3901 3.18243C18.1402 3.79338 18.8779 4.46273 19.4981 5.21495C19.6065 5.3258 19.6773 5.47006 19.7012 5.62383C19.7012 5.62502 19.7015 5.62563 19.7017 5.62682C19.7027 5.63337 19.7035 5.64052 19.7043 5.64707C19.705 5.65304 19.7062 5.659 19.7066 5.66495C19.7069 5.66914 19.7073 5.67331 19.7078 5.67748C19.7083 5.68522 19.709 5.69357 19.7093 5.70191C19.7099 5.71443 19.7107 5.72636 19.7107 5.73887C19.7107 5.75139 19.7104 5.7639 19.7098 5.77582ZM9.99047 1.94206C7.97734 1.94206 6.3454 3.57402 6.3454 5.58687C6.3454 7.59972 7.97734 9.2317 9.99047 9.2317C12.0035 9.2317 13.6355 7.59972 13.6355 5.58687C13.6355 3.57402 12.0035 1.94206 9.99047 1.94206ZM9.99047 7.40899C8.98395 7.40899 8.16799 6.5936 8.16799 5.58687C8.16799 4.58015 8.98395 3.76417 9.99047 3.76417C10.997 3.76417 11.8129 4.58015 11.8129 5.58687C11.8129 6.5936 10.997 7.40899 9.99047 7.40899Z" fill="#95E1D3"/>
</svg>
