<?xml version="1.0" standalone="no"?>
<!DOCTYPE svg PUBLIC "-//W3C//DTD SVG 20010904//EN"
 "http://www.w3.org/TR/2001/REC-SVG-20010904/DTD/svg10.dtd">
<svg version="1.0" xmlns="http://www.w3.org/2000/svg"
 width="700.000000pt" height="700.000000pt" viewBox="0 0 700.000000 700.000000"
 preserveAspectRatio="xMidYMid meet">
<metadata>
Created by potrace 1.11, written by Peter Selinger 2001-2013
</metadata>
<g transform="translate(0.000000,700.000000) scale(0.100000,-0.100000)"
fill="#000000" stroke="none">
<path d="M4812 6119 c-89 -16 -127 -47 -392 -311 l-259 -258 -48 0 c-92 0
-119 -14 -234 -127 -59 -58 -116 -121 -126 -141 -10 -22 -18 -63 -19 -100 l-2
-62 -1293 -1292 -1292 -1292 -24 -101 c-13 -55 -37 -156 -53 -225 -77 -321
-133 -556 -161 -673 -35 -148 -40 -210 -23 -294 50 -248 302 -411 549 -356 33
7 108 24 166 38 58 14 114 27 125 29 10 3 57 14 104 26 47 11 96 23 110 26 14
3 72 17 130 31 58 14 112 26 120 28 8 2 81 20 162 39 81 20 154 36 161 36 8 0
598 584 1311 1297 l1297 1297 51 -3 c79 -3 136 31 255 152 109 113 127 146
122 232 l-3 43 253 254 c140 139 264 270 278 291 52 83 60 189 22 295 -20 53
-53 89 -513 550 -270 271 -511 506 -535 523 -69 45 -155 63 -239 48z m-92
-1404 l615 -615 -77 -77 -77 -77 -618 617 -617 617 74 75 c41 41 77 75 80 75
3 0 282 -277 620 -615z m-730 114 l111 -112 -1140 -1140 -1140 -1140 -82 37
c-44 21 -120 50 -167 65 l-85 28 1184 1186 c651 652 1189 1186 1196 1186 6 1
61 -49 123 -110z m420 -420 c148 -148 151 -152 133 -171 -10 -11 -515 -517
-1123 -1125 l-1105 -1105 -35 44 c-47 58 -163 175 -224 224 l-49 40 1123 1122
c617 617 1123 1122 1125 1122 2 0 72 -68 155 -151z m425 -425 l114 -115 -1191
-1191 -1191 -1191 -31 94 c-18 52 -47 127 -66 167 l-33 73 1139 1139 c626 627
1140 1140 1142 1140 1 0 54 -52 117 -116z m-3305 -1660 c182 -64 343 -166 485
-308 156 -156 271 -348 328 -546 42 -145 48 -131 -73 -160 l-105 -26 -17 73
c-90 377 -392 684 -774 786 -45 12 -83 25 -84 30 -1 4 8 52 21 106 l22 98 61
-13 c34 -8 95 -26 136 -40z m-202 -394 c81 -22 218 -87 272 -128 115 -86 209
-198 269 -320 35 -69 81 -205 81 -238 0 -6 -58 -25 -132 -43 -188 -45 -188
-45 -188 -24 0 10 -13 54 -28 98 -29 82 -82 165 -143 221 -65 60 -175 114
-265 130 -16 3 -30 7 -32 9 -9 9 71 315 82 315 6 0 44 -9 84 -20z"/>
</g>
</svg>
