<svg width="11" height="6" viewBox="0 0 11 6" fill="none" xmlns="http://www.w3.org/2000/svg">
<path d="M10.3401 4.61495L5.88609 0.160957C5.78276 0.0588509 5.64335 0.00158691 5.49809 0.00158691C5.35282 0.00158691 5.21341 0.0588509 5.11009 0.160957L0.660089 4.61095C0.557864 4.71381 0.500488 4.85294 0.500488 4.99796C0.500488 5.14297 0.557864 5.2821 0.660089 5.38496L0.988089 5.71295C1.09082 5.81542 1.22999 5.87296 1.37509 5.87296C1.52019 5.87296 1.65936 5.81542 1.76209 5.71295L5.50009 1.97395L9.23909 5.71495C9.34195 5.81717 9.48107 5.87456 9.62609 5.87456C9.7711 5.87456 9.91023 5.81717 10.0131 5.71495L10.3411 5.38696C10.4428 5.28418 10.4998 5.14536 10.4996 5.00075C10.4994 4.85614 10.4421 4.71747 10.3401 4.61495Z" fill="black"/>
</svg>
