<svg width="249" height="43" viewBox="0 0 249 43" fill="none" xmlns="http://www.w3.org/2000/svg">
<path d="M42.068 23.069H23.068V30.32C23.077 33.4334 24.3178 36.4168 26.5195 38.6182C28.7211 40.8197 31.7045 42.0603 34.818 42.069H42.068V23.069Z" fill="#BFBA00"/>
<path d="M0 23.069V30.319C0.00923162 33.4323 1.25 36.4154 3.45134 38.617C5.65268 40.8185 8.63572 42.0595 11.749 42.069H19V23.069H0Z" fill="#BFBA00"/>
<path d="M19 19.001V11.75C18.991 8.63674 17.7503 5.65354 15.5489 3.45212C13.3475 1.2507 10.3643 0.00997757 7.251 0.00100708L0 0.00100708V19.001H19Z" fill="#BFBA00"/>
<path d="M23.065 19.001H42.065V11.75C42.0555 8.63707 40.8148 5.65433 38.6137 3.45305C36.4126 1.25177 33.4299 0.010766 30.317 0.00100708L23.067 0.00100708L23.065 19.001Z" fill="#BFBA00"/>
<path d="M46.173 23.068V42.068H53.425C56.5384 42.0588 59.5216 40.8178 61.723 38.6162C63.9243 36.4147 65.165 33.4314 65.174 30.318V23.068H46.173Z" fill="#BFBA00"/>
<path d="M65.172 0.00100708H57.922C54.8085 0.00997502 51.8251 1.25063 49.6234 3.452C47.4217 5.65336 46.1805 8.63655 46.171 11.75V19.001H65.171L65.172 0.00100708Z" fill="#FC943E"/>
<path d="M146.547 19.855C147.334 19.1659 147.951 18.3038 148.349 17.3364C148.747 16.369 148.915 15.3225 148.841 14.279C148.841 10.702 146.494 7.89001 141.45 7.89001H133.218V34.297H141.664C147.005 34.297 150.064 31.374 150.064 26.278C150.068 23.159 148.882 21.003 146.547 19.855ZM140.395 19.04H137.264V10.834C137.264 10.834 138.672 10.845 141.45 10.845C143.542 10.845 144.75 12.112 144.75 14.566C144.755 17.768 143.326 19.04 140.395 19.04ZM141.663 31.362H137.263V21.972H141.663C144.757 21.972 146.019 23.221 146.019 26.278C146.019 28.596 145.263 31.361 141.663 31.361V31.362Z" fill="#1A1A1A"/>
<path d="M107.674 25.685C107.674 29.206 106.919 31.36 103.903 31.36C100.887 31.36 100.134 29.205 100.134 25.685V7.89102H96.089V25.685C96.089 29.325 95.472 31.397 92.523 31.397C89.385 31.398 88.511 29.185 88.511 25.685V7.89102H84.462V26.274C84.462 31.521 86.795 34.616 92.321 34.616C93.4996 34.6796 94.6717 34.4038 95.6983 33.8213C96.7249 33.2389 97.5629 32.3743 98.113 31.33C98.6633 32.3741 99.5014 33.2386 100.528 33.821C101.554 34.4034 102.726 34.6793 103.905 34.616C109.431 34.616 111.764 31.521 111.764 26.274V7.89102H107.677V25.685H107.674Z" fill="#1A1A1A"/>
<path d="M115.394 34.298H130.17V31.361H119.44V21.972H128.946V19.04H119.44V10.824H130.17V7.89102H115.394V34.298Z" fill="#1A1A1A"/>
<path d="M161.096 7.56201C155.65 7.56201 152.655 10.024 152.655 14.497C152.655 17.869 155.58 19.852 159.97 21.797C163.608 23.432 165.452 25.343 165.452 27.47C165.452 30.244 163.952 31.71 161.096 31.71C158.016 31.71 156.701 30.683 156.701 28.269V27.682H152.655V28.269C152.655 32.498 155.492 34.646 161.096 34.646C166.439 34.646 169.496 32.029 169.496 27.47C169.496 24.39 167.048 21.722 162.217 19.542C158.139 17.723 156.696 16.403 156.696 14.497C156.696 11.805 158.132 10.497 161.091 10.497C164.269 10.497 165.447 11.365 165.447 13.697V14.283H169.496V13.698C169.501 9.56901 166.75 7.56201 161.096 7.56201Z" fill="#1A1A1A"/>
<path d="M184.754 10.074C184.754 16.324 179.512 19.039 178.054 19.039H177.175V7.89102H173.126V34.298H177.175V21.972H179.226C182.116 21.972 185.926 25.09 185.926 32.372V34.297H189.972V32.373C189.972 24.858 185.88 20.916 183.361 19.954C185.647 18.545 188.795 15.616 188.795 9.48702V7.88702H184.754V10.07V10.074Z" fill="#1A1A1A"/>
<path d="M201.365 7.56201C195.683 7.56201 192.919 10.108 192.919 15.345V26.621C192.919 31.868 195.839 34.645 201.365 34.645C206.865 34.645 209.765 31.868 209.765 26.621V15.345C209.768 10.109 207.019 7.56201 201.365 7.56201ZM201.365 31.709C198.282 31.709 196.965 30.188 196.965 26.621V15.345C196.965 11.9 198.238 10.496 201.365 10.496C204.459 10.496 205.721 11.896 205.721 15.345V26.621C205.721 30.141 204.377 31.709 201.365 31.709Z" fill="#1A1A1A"/>
<path d="M240.399 7.56201C234.876 7.56201 231.956 10.321 231.956 15.542V34.298H236.003V25.675H244.756V34.298H248.802V15.584C248.801 10.336 245.894 7.56201 240.399 7.56201ZM240.399 10.496C243.416 10.496 244.755 12.065 244.755 15.585V22.744H236.002V15.544C236.003 12.004 237.317 10.498 240.399 10.498V10.496Z" fill="#1A1A1A"/>
<path d="M217.447 7.89102H213.4V34.298H228.177V31.361H217.447V7.89102Z" fill="#1A1A1A"/>
</svg>
