<svg viewBox="0 0 512 512" xmlns="http://www.w3.org/2000/svg">
<g transform="translate(0 512) scale(.1 -.1)">
<path fill="#555555" d="m2310 5114c-343-41-619-122-912-269-665-334-1156-957-1333-1692-51-215-60-300-60-593s9-378 60-593c116-481 362-911 716-1252 385-371 847-600 1394-692 158-26 612-26 770 0 577 97 1069 352 1460 758 371 385 600 847 692 1394 26 157 26 609 0 775-42 263-112 482-237 735-142 290-263 458-490 685s-395 348-685 490c-190 94-311 139-489 185-219 56-313 67-596 70-140 2-271 1-290-1zm1537-1528c28-24 28-26 32-155 1-73 0-142-3-154-3-13-20-28-43-38-21-9-301-171-623-361s-595-350-607-357c-20-10-88 26-665 355-354 202-647 372-651 378s-7 78-5 159l3 149 56 48h1239 1239l28-24zm27-612c3-9 6-273 6-589 0-455-3-575-13-583s-95 78-366 371c-194 210-353 386-353 391 0 10 691 425 708 426 7 0 15-7 18-16zm-2194-215c204-117 370-216 370-220 0-5-168-163-372-353-279-257-376-342-385-334-10 8-13 131-13 558 0 300 3 550 7 553 3 4 10 7 15 7s175-95 378-211zm1676-769c231-247 419-455 419-462 0-11-229-13-1211-16-1236-2-1261-1-1236 33 4 6 201 190 437 410 237 219 447 414 467 433l37 35 138-78c96-54 149-78 174-79 28 0 69 19 185 86 82 48 154 87 160 88 6 0 200-202 430-450z"/>
</g>
</svg>
